<svg width="22" height="22" viewBox="0 0 22 22" fill="none" xmlns="http://www.w3.org/2000/svg">
<path d="M20.8251 7.06195C21.3889 7.24053 21.7108 7.54213 21.7854 7.97208C21.8599 8.40203 21.7001 8.86049 21.3117 9.34205C20.8951 9.85075 20.3928 10.1909 19.8219 10.357C17.6228 10.9622 15.101 11.0266 12.257 10.539C14.2824 8.92319 16.5206 7.77913 18.9773 7.09026C19.6435 6.89821 20.2557 6.88869 20.8251 7.06195ZM13.1689 0.67133C13.6661 0.303335 14.1694 0.180267 14.6787 0.302215C15.0768 0.421762 15.3756 0.767297 15.5918 1.34487C15.7683 1.94941 15.7672 2.53921 15.5775 3.10272C15.0054 4.92682 13.6026 7.1009 11.3803 9.62505C11.0544 7.10354 11.2781 4.64343 12.0456 2.25031C12.2651 1.59281 12.6432 1.06653 13.1689 0.67133ZM18.7771 17.518C18.8153 18.0918 18.6612 18.5449 18.3035 18.8879C17.98 19.1983 17.5159 19.3055 16.9169 19.2152C16.3452 19.1532 15.8661 18.9151 15.4794 18.5121C14.0091 16.9793 12.8303 14.8072 11.9486 11.9903C14.2682 12.8175 16.3213 14.1509 18.0965 16.0016C18.5104 16.4331 18.7447 16.9387 18.7774 17.5069M2.8205 4.67894C2.78468 3.99386 2.97398 3.45256 3.3884 3.05503C3.74037 2.7174 4.277 2.595 4.98728 2.68773C5.6691 2.8076 6.23601 3.10314 6.67711 3.56299C8.00584 4.94817 9.12947 7.09682 10.0429 9.99226C7.0112 8.89995 4.88815 7.72081 3.66833 6.44916C3.16732 5.92687 2.89012 5.34242 2.8205 4.67894ZM9.218 21.0301C8.74797 21.4265 8.28326 21.5671 7.82955 21.4464C7.43145 21.3268 7.14352 20.9926 6.9601 20.4491C6.77783 19.85 6.77898 19.2602 6.97442 18.6912C7.80122 16.1213 8.99694 14.0042 10.5673 12.3344C10.9952 15.0305 10.8908 17.3762 10.2594 19.3771C10.0387 20.0903 9.6878 20.6449 9.21776 21.0413M1.20412 14.9826C0.669907 14.7212 0.349782 14.3306 0.254828 13.8112C0.151925 13.4085 0.311745 12.9501 0.728433 12.4413C1.14404 11.9882 1.64015 11.6758 2.21652 11.5153C4.41566 10.9101 6.90399 10.845 9.69237 11.3314C7.28231 13.2508 5.0137 14.5222 2.87589 15.1231C2.29376 15.289 1.73833 15.2441 1.20412 14.9826Z" fill="#BFEA88"/>
</svg>
